<svg width="48" height="49" viewBox="0 0 48 49" fill="none" xmlns="http://www.w3.org/2000/svg">
<g clip-path="url(#clip0_6_176)">
<path d="M0 42.1026C0 45.5211 2.77106 48.2917 6.18919 48.2917H41.8106C45.2293 48.2917 48 45.5207 48 42.1026V6.48112C48 3.06244 45.2289 0.291748 41.8108 0.291748H6.18937C2.77069 0.291748 0 3.06281 0 6.48094V42.1024V42.1026Z" fill="#563D7C"/>
<path d="M19.9046 21.5239V14.7264H25.8879C26.4579 14.7264 27.0073 14.7739 27.5364 14.8689C28.0655 14.9638 28.5337 15.1333 28.9408 15.3776C29.3477 15.6219 29.6734 15.9611 29.9177 16.3952C30.1618 16.8294 30.284 17.3857 30.284 18.0639C30.284 19.2851 29.9177 20.1671 29.1849 20.7097C28.4524 21.2526 27.5162 21.5239 26.3764 21.5239H19.9046ZM13.514 9.7605V38.823H27.5975C28.9001 38.823 30.1687 38.6602 31.4034 38.3346C32.6381 38.0089 33.737 37.5069 34.7004 36.8286C35.6636 36.1502 36.4303 35.2749 37.0001 34.2032C37.5701 33.1312 37.8549 31.8626 37.8549 30.3973C37.8549 28.5791 37.4139 27.0257 36.5321 25.7368C35.6501 24.4477 34.3136 23.5455 32.5226 23.0299C33.8252 22.4059 34.809 21.6052 35.4739 20.6284C36.1385 19.6515 36.471 18.4305 36.471 16.965C36.471 15.6082 36.2471 14.4686 35.7994 13.5459C35.3516 12.6234 34.7207 11.8839 33.9065 11.3276C33.0926 10.7713 32.1157 10.371 30.9759 10.1269C29.8363 9.88256 28.5744 9.7605 27.1905 9.7605H13.514ZM19.9046 33.8571V25.8791H26.8648C28.2487 25.8791 29.3614 26.1979 30.2027 26.8357C31.0438 27.4734 31.4645 28.5384 31.4645 30.0309C31.4645 30.7909 31.3355 31.4149 31.0777 31.9033C30.8199 32.3917 30.474 32.7786 30.0397 33.0634C29.6057 33.3484 29.1035 33.5518 28.5337 33.6741C27.9637 33.7959 27.3669 33.8571 26.7427 33.8571H19.9046Z" fill="white"/>
</g>
<defs>
<clipPath id="clip0_6_176">
<rect width="48" height="48" fill="white" transform="translate(0 0.291748)"/>
</clipPath>
</defs>
</svg>
