<svg width="48" height="49" viewBox="0 0 48 49" fill="none" xmlns="http://www.w3.org/2000/svg">
<g clip-path="url(#clip0_6_191)">
<path fill-rule="evenodd" clip-rule="evenodd" d="M24 0.291748C10.74 0.291748 0 11.0317 0 24.2917C0 34.9117 6.87 43.8817 16.41 47.0617C17.61 47.2717 18.06 46.5518 18.06 45.9217C18.06 45.3517 18.03 43.4617 18.03 41.4517C12 42.5617 10.44 39.9817 9.96 38.6317C9.69 37.9417 8.52 35.8117 7.5 35.2417C6.66 34.7917 5.46 33.6817 7.47 33.6517C9.36 33.6217 10.71 35.3917 11.16 36.1117C13.32 39.7417 16.77 38.7217 18.15 38.0917C18.36 36.5317 18.99 35.4817 19.68 34.8817C14.34 34.2817 8.76 32.2117 8.76 23.0317C8.76 20.4217 9.69 18.2617 11.22 16.5817C10.98 15.9817 10.14 13.5217 11.46 10.2217C11.46 10.2217 13.47 9.59175 18.06 12.6817C19.98 12.1417 22.02 11.8717 24.06 11.8717C26.1 11.8717 28.14 12.1417 30.06 12.6817C34.65 9.56175 36.66 10.2217 36.66 10.2217C37.98 13.5217 37.14 15.9817 36.9 16.5817C38.43 18.2617 39.36 20.3917 39.36 23.0317C39.36 32.2417 33.75 34.2817 28.41 34.8817C29.28 35.6317 30.03 37.0717 30.03 39.3217C30.03 42.5317 30 45.1117 30 45.9217C30 46.5518 30.45 47.3018 31.65 47.0617C36.4144 45.4532 40.5544 42.3911 43.4873 38.3065C46.4203 34.2218 47.9986 29.3203 48 24.2917C48 11.0317 37.26 0.291748 24 0.291748Z" fill="white"/>
</g>
<defs>
<clipPath id="clip0_6_191">
<rect width="48" height="48" fill="white" transform="translate(0 0.291748)"/>
</clipPath>
</defs>
</svg>
