<svg width="48" height="49" viewBox="0 0 48 49" fill="none" xmlns="http://www.w3.org/2000/svg">
<path d="M8.85298 41.0932L5.48248 3.29175H42.5175L39.1425 41.0872L23.9775 45.2917L8.85298 41.0932Z" fill="#E44F26"/>
<path d="M24 42.0787L36.255 38.6812L39.138 6.38324H24V42.0787Z" fill="#F1662A"/>
<path d="M24 20.4022H17.865L17.442 15.6547H24V11.0182H12.375L12.486 12.2632L13.6245 25.0387H24V20.4022ZM24 32.4428L23.979 32.4488L18.816 31.0553L18.486 27.3578H13.8315L14.481 34.6358L23.979 37.2727L24 37.2668V32.4428Z" fill="#EBEBEB"/>
<path d="M23.9835 20.4022V25.0387H29.6925L29.1555 31.0523L23.9835 32.4473V37.2712L33.489 34.6358L33.558 33.8528L34.647 21.6473L34.761 20.4022H23.9835ZM23.9835 11.0182V15.6547H35.1825L35.2755 14.6138L35.487 12.2632L35.598 11.0182H23.9835Z" fill="white"/>
</svg>
