<svg width="67" height="52" viewBox="0 0 67 52" fill="none" xmlns="http://www.w3.org/2000/svg">
<path d="M28.2736 49.6403C24.8257 52.1031 21.5009 50.6664 20.2695 49.6403L14.3177 45.7409L9.03032 41.8414C8.20939 41.431 5.80045 39.3786 5.1309 36.7106C4.50537 34.218 5.67819 30.6905 6.77276 29.5275L14.3177 26.449L14.7282 26.6542C27.5347 34.0426 30.9416 37.1211 30.5311 40.8153V44.3042C30.5995 45.604 30.2438 48.491 28.2736 49.6403Z" fill="url(#paint0_linear_102_3)" stroke="#FFB742"/>
<path d="M0 20.7676L0 31.4397C0.615698 37.6497 8.82501 42.2518 9.03024 41.8413C8.41454 40.8836 6.56745 38.4177 6.15698 35.9607C5.75479 33.5533 7.04632 31.4456 8.00408 30.6247C10.8773 28.7776 18.309 24.2481 24.8332 19.5363C32.2215 14.2002 30.3744 13.4322 30.3744 5.22293C29.5535 -0.318354 23.1913 0.913043 21.9599 1.681C18.1289 4.28062 9.55355 10.5271 5.33605 12.9688C1.43663 15.2264 0.0684109 18.8521 0 20.7676Z" fill="#FFB742"/>
<path d="M37.8858 2.35973C41.3338 -0.103065 44.6585 1.33356 45.8899 2.35973L51.8417 6.25915L57.1291 10.1586C57.95 10.569 60.359 12.6214 61.0285 15.2894C61.6541 17.782 60.4812 21.3095 59.3867 22.4725L51.8417 25.551L51.4312 25.3458C38.6247 17.9574 35.2178 14.8789 35.6283 11.1847V7.69578C35.5599 6.39597 35.9156 3.50903 37.8858 2.35973Z" fill="url(#paint1_linear_102_3)" stroke="#FFB742"/>
<path d="M66.1594 31.2324V20.5603C65.5437 14.3503 57.3344 9.74821 57.1291 10.1587C57.7448 11.1164 59.5919 13.5823 60.0024 16.0393C60.4046 18.4467 59.113 20.5544 58.1553 21.3753C55.282 23.2224 47.8503 27.7519 41.3262 32.4637C33.9378 37.7998 35.7849 38.5678 35.7849 46.7771C36.6058 52.3184 42.9681 51.087 44.1995 50.319C48.0305 47.7194 56.6058 41.4729 60.8233 39.0312C64.7227 36.7736 66.091 33.1479 66.1594 31.2324Z" fill="#FFB742"/>
<defs>
<linearGradient id="paint0_linear_102_3" x1="13.9559" y1="26.449" x2="24.4228" y2="51.0769" gradientUnits="userSpaceOnUse">
<stop stop-color="#BB842C"/>
<stop offset="1" stop-color="#FFB742"/>
</linearGradient>
<linearGradient id="paint1_linear_102_3" x1="52.2035" y1="25.551" x2="41.7366" y2="0.923098" gradientUnits="userSpaceOnUse">
<stop stop-color="#BB842C"/>
<stop offset="1" stop-color="#FFB742"/>
</linearGradient>
</defs>
</svg>
