<svg width="14" height="14" viewBox="0 0 14 14" fill="none" xmlns="http://www.w3.org/2000/svg">
<path d="M12.621 5.06837L8.7111 4.50013L6.96327 0.956732C6.91553 0.859716 6.837 0.781179 6.73998 0.733441C6.49667 0.613326 6.201 0.713422 6.07935 0.956732L4.33152 4.50013L0.421611 5.06837C0.313816 5.08377 0.215259 5.13459 0.139802 5.21158C0.048579 5.30534 -0.00168917 5.43149 4.3343e-05 5.56229C0.00177586 5.6931 0.0553674 5.81786 0.149042 5.90918L2.97791 8.66721L2.30958 12.5617C2.2939 12.6523 2.30393 12.7455 2.33851 12.8307C2.3731 12.9159 2.43086 12.9896 2.50525 13.0437C2.57964 13.0977 2.66768 13.1298 2.75939 13.1363C2.8511 13.1429 2.9428 13.1236 3.02411 13.0807L6.52131 11.242L10.0185 13.0807C10.114 13.1315 10.2249 13.1484 10.3311 13.1299C10.5991 13.0837 10.7792 12.8297 10.733 12.5617L10.0647 8.66721L12.8936 5.90918C12.9706 5.83372 13.0214 5.73516 13.0368 5.62737C13.0784 5.35788 12.8905 5.10841 12.621 5.06837Z" fill="#FFB742"/>
</svg>
