<svg width="48" height="49" viewBox="0 0 48 49" fill="none" xmlns="http://www.w3.org/2000/svg">
<path d="M37 19.3117C35.5001 18.7951 34.1762 17.8663 33.18 16.6317C32.0821 15.2562 30.6841 14.15 29.093 13.3978C27.5019 12.6455 25.7598 12.2672 24 12.2917C21.6327 12.1241 19.2892 12.8542 17.436 14.3367C15.5829 15.8193 14.3561 17.9454 14 20.2917C14.7013 19.1182 15.7569 18.1975 17.0148 17.662C18.2727 17.1265 19.668 17.0038 21 17.3117C22.4974 17.8433 23.8192 18.7776 24.82 20.0117C25.9239 21.3763 27.3246 22.471 28.9153 23.2127C30.5061 23.9544 32.2451 24.3234 34 24.2917C36.3673 24.4594 38.7108 23.7292 40.564 22.2467C42.4171 20.7642 43.6439 18.6381 44 16.2917C43.3114 17.4793 42.2592 18.4139 40.9987 18.9577C39.7383 19.5015 38.3364 19.6256 37 19.3117ZM11 29.2717C12.4999 29.7883 13.8238 30.7171 14.82 31.9517C15.9179 33.3273 17.3159 34.4335 18.907 35.1857C20.4981 35.9379 22.2402 36.3162 24 36.2917C26.3673 36.4594 28.7108 35.7292 30.564 34.2467C32.4171 32.7642 33.6439 30.6381 34 28.2917C33.2987 29.4652 32.2431 30.386 30.9852 30.9215C29.7273 31.457 28.332 31.5796 27 31.2717C25.5026 30.7401 24.1808 29.8059 23.18 28.5717C22.0731 27.2106 20.6719 26.1182 19.0818 25.3769C17.4917 24.6355 15.7542 24.2645 14 24.2917C11.6327 24.1241 9.28917 24.8542 7.43601 26.3367C5.58286 27.8193 4.35608 29.9454 4 32.2917C4.68861 31.1042 5.74082 30.1695 7.00127 29.6257C8.26172 29.0819 9.66362 28.9578 11 29.2717Z" fill="#33A9DC"/>
</svg>
